<svg xmlns="http://www.w3.org/2000/svg" xmlns:xlink="http://www.w3.org/1999/xlink" id="Layer_1" data-name="Layer 1" viewBox="0 0 136 35"><defs><style>.cls-1{fill:url(#linear-gradient);}.cls-2{fill:url(#linear-gradient-2);}.cls-3{fill:url(#linear-gradient-3);}.cls-4{fill:url(#linear-gradient-4);}.cls-5{fill:url(#linear-gradient-5);}.cls-6{fill:url(#linear-gradient-6);}.cls-7{fill:url(#linear-gradient-7);}.cls-8{fill:url(#linear-gradient-8);}</style><linearGradient id="linear-gradient" x1="53.97" y1="44.48" x2="80.84" y2="-2.06" gradientUnits="userSpaceOnUse"><stop offset="0" stop-color="#2bb7f2"/><stop offset="0.51" stop-color="#4a76f5"/><stop offset="1" stop-color="#6f60f4"/></linearGradient><linearGradient id="linear-gradient-2" x1="5.86" y1="35.38" x2="19.97" y2="10.93" xlink:href="#linear-gradient"/><linearGradient id="linear-gradient-3" x1="72.27" y1="35.42" x2="75.13" y2="30.47" xlink:href="#linear-gradient"/><linearGradient id="linear-gradient-4" x1="57.25" y1="34.63" x2="59.2" y2="31.26" xlink:href="#linear-gradient"/><linearGradient id="linear-gradient-5" x1="90.78" y1="34.63" x2="92.72" y2="31.26" xlink:href="#linear-gradient"/><linearGradient id="linear-gradient-6" x1="118.36" y1="16.55" x2="127.24" y2="1.18" xlink:href="#linear-gradient"/><linearGradient id="linear-gradient-7" x1="115.06" y1="32.87" x2="127.8" y2="10.81" xlink:href="#linear-gradient"/><linearGradient id="linear-gradient-8" x1="120.17" y1="16.74" x2="123.67" y2="10.67" xlink:href="#linear-gradient"/></defs><title>logo-jibimo-136.35</title><path class="cls-1" d="M103.67,21.89l-.06.33a4.3,4.3,0,0,1-.28.88,7,7,0,0,1-1.3,2,7.62,7.62,0,0,1-4,2.33,11.11,11.11,0,0,1-1.51.27,16.12,16.12,0,0,1-1.7.08H84.57c-.33,0-.65.05-1,0a9.28,9.28,0,0,1-2.23-.29,4.36,4.36,0,0,1-2-1.17,4.13,4.13,0,0,1-.61-.83c-.1-.18-.12-.18-.25,0a5.49,5.49,0,0,1-.83.84,6.69,6.69,0,0,1-1.78,1,6.83,6.83,0,0,1-1.62.38,11.15,11.15,0,0,1-1.29.07c-1,0-1.9,0-2.85,0a8.74,8.74,0,0,1-2.1-.25,4.4,4.4,0,0,1-1.84-.93,4.18,4.18,0,0,1-.82-1,2.53,2.53,0,0,1-.13-.22c0-.07-.09-.07-.16,0l-.07.08a5.74,5.74,0,0,1-2.34,1.73,6.26,6.26,0,0,1-1.9.49,9.66,9.66,0,0,1-1.2.07c-1.17,0-2.34,0-3.52,0a8.27,8.27,0,0,1-2.1-.25,4.65,4.65,0,0,1-1.55-.71,4.56,4.56,0,0,1-.87-.83,4.73,4.73,0,0,1-1-2.29,9.45,9.45,0,0,1-.09-1.07c0-.64,0-1.28,0-1.93a6.62,6.62,0,0,0-.17-1.4,2.78,2.78,0,0,0-1.51-1.95,5,5,0,0,0-1.35-.46,9.45,9.45,0,0,0-1.3-.18c-.63-.06-1.25-.08-1.88-.09-1,0-1.93,0-2.9,0-.37,0-.74.05-1.11.07l-.62.06a10.46,10.46,0,0,0-2.23.42,4.19,4.19,0,0,0-.69.29,1.92,1.92,0,0,0-.86,1,5.46,5.46,0,0,0-.34,1.26,11.71,11.71,0,0,0-.14,1.19c0,.61-.07,1.21-.09,1.82,0,1.09,0,2.17,0,3.26,0,.52,0,1,0,1.55a5.4,5.4,0,0,0,.24,1.37,3.36,3.36,0,0,0,1.69,2,6.48,6.48,0,0,0,1.72.59,11.81,11.81,0,0,0,1.33.18c.31,0,.62,0,.92,0h.73c3.67.05,7.33,0,11,0,.1,0,.2,0,.3,0a1.57,1.57,0,0,1,1.53,1.42,1.55,1.55,0,0,1-1.25,1.68,1.23,1.23,0,0,1-.27,0H40.91a16.08,16.08,0,0,1-1.84-.08c-.49-.05-1-.12-1.47-.22a8.07,8.07,0,0,1-2.12-.73,4.63,4.63,0,0,1-1.12-.74,6.56,6.56,0,0,1-.72-.77,6.92,6.92,0,0,1-1.3-2.42,4.16,4.16,0,0,1-.2-1.27c0-1.56,0-3.12,0-4.68,0-.52,0-1,0-1.56s0-.73,0-1.09,0-1,.08-1.42a12.52,12.52,0,0,1,.33-2.11,7.35,7.35,0,0,1,.43-1.22,3.4,3.4,0,0,1,.82-1.16,4.48,4.48,0,0,1,.89-.6,8.63,8.63,0,0,1,1.62-.63,16.72,16.72,0,0,1,2-.41l1.34-.15c.3,0,.6,0,.9-.06.52,0,1,0,1.57-.05s.8,0,1.2,0,1,0,1.56,0,1,0,1.5.1,1.1.13,1.64.23a10,10,0,0,1,2.12.6,6,6,0,0,1,1.56.92,4.63,4.63,0,0,1,1,1.26,5.85,5.85,0,0,1,.63,1.77,8.24,8.24,0,0,1,.18,1.79c0,.23,0,.47,0,.71,0,.45,0,.91,0,1.37a4.19,4.19,0,0,0,.17,1,1.63,1.63,0,0,0,.31.6,1.42,1.42,0,0,0,.77.45,2.75,2.75,0,0,0,.7.1H60a5.13,5.13,0,0,0,1.36-.18,3.28,3.28,0,0,0,1.85-1.31,3.33,3.33,0,0,0,.6-1.72c0-.29,0-.57,0-.86V15.1a1.83,1.83,0,0,1,0-.47,1.58,1.58,0,0,1,3.07,0,1.83,1.83,0,0,1,0,.47v4c0,.57,0,1.13,0,1.7a7.54,7.54,0,0,0,.16,1.34,3.58,3.58,0,0,0,.32.88,2.36,2.36,0,0,0,1.36,1.12,4.37,4.37,0,0,0,1.29.22h3.67A4.3,4.3,0,0,0,75.44,24a3.3,3.3,0,0,0,1.39-1.33,3.39,3.39,0,0,0,.44-1.53c0-.4,0-.8,0-1.2V15.11a2.07,2.07,0,0,1,0-.49,1.55,1.55,0,0,1,1.21-1.15,1.58,1.58,0,0,1,1.89,1.31c0,.11,0,.22,0,.34,0,1.33,0,2.66,0,4,0,.23,0,.46,0,.69a17.88,17.88,0,0,0,.13,1.94,4.7,4.7,0,0,0,.25,1,2.38,2.38,0,0,0,1.63,1.47,5.18,5.18,0,0,0,1.18.18c.94.06,1.89,0,2.83,0h7.34c.53,0,1.06,0,1.59-.08a10.18,10.18,0,0,0,1.35-.18,7,7,0,0,0,1.65-.55,3.88,3.88,0,0,0,1.17-.92c.14-.17.28-.34.41-.53a3.25,3.25,0,0,0,.58-1.44c.05-.31.07-.62.09-.94s0-.85.07-1.28a1.21,1.21,0,0,0,0-.19v-.75c0-.55,0-1.09,0-1.63A9.68,9.68,0,0,0,100.4,14a4.22,4.22,0,0,0-.32-.86,1.82,1.82,0,0,0-.56-.67,5.4,5.4,0,0,0-1.33-.74,9.7,9.7,0,0,0-1.92-.51c-.42-.07-.85-.12-1.28-.16s-.6-.05-.9-.05c-.93,0-1.86,0-2.79,0-.37,0-.75,0-1.13.06s-.67,0-1,.1a6.87,6.87,0,0,0-2,.52A3.34,3.34,0,0,0,85.61,13a8.11,8.11,0,0,0-.53,1,3.32,3.32,0,0,1-.4.71,1.21,1.21,0,0,1-.94.52,1.87,1.87,0,0,1-1-.17,1.34,1.34,0,0,1-.8-1,1.15,1.15,0,0,1,0-.37,6,6,0,0,1,1-2.46,6.78,6.78,0,0,1,2.26-2,9.2,9.2,0,0,1,2.32-.89A14.55,14.55,0,0,1,89.26,8c.49-.06,1-.1,1.47-.14,1-.06,2.09,0,3.13,0,.3,0,.59,0,.88.06l.53,0c.48,0,1,.11,1.43.19a16.27,16.27,0,0,1,1.71.38,10.28,10.28,0,0,1,2.22.85,5.63,5.63,0,0,1,1.41,1,5.29,5.29,0,0,1,1.22,1.91,6.91,6.91,0,0,1,.35,1.28l0,.25a.47.47,0,0,0,0,.17Z"/><path class="cls-2" d="M0,19.31A.82.82,0,0,0,.07,19a6.32,6.32,0,0,1,.45-1.81,5.77,5.77,0,0,1,2.42-2.83,6.45,6.45,0,0,1,2.41-.86,6,6,0,0,1,1.47-.07A6.43,6.43,0,0,1,10.73,15a5.8,5.8,0,0,1,1.8,2.87,7.58,7.58,0,0,1,.28,1.58q0,.5,0,1c0,1.15.06,2.31,0,3.47,0,.23,0,.24.24.24H16c.17,0,.19,0,.19-.18v-.19c0-1.29,0-2.58,0-3.87a7.05,7.05,0,0,1,.31-2.09,6,6,0,0,1,1.13-2.08,6.3,6.3,0,0,1,3.29-2,7,7,0,0,1,2-.21,6.31,6.31,0,0,1,3.5,1.2,5.4,5.4,0,0,1,1.92,2.57,5.88,5.88,0,0,1,.34,1.48c0,.23,0,.46,0,.69.05.7,0,1.41,0,2.12a6.52,6.52,0,0,1-.42,2.27,5.33,5.33,0,0,1-.89,1.53A5.58,5.58,0,0,1,25,27.05a7.39,7.39,0,0,1-1.46.35,7.86,7.86,0,0,1-1.28.08,4.43,4.43,0,0,0-.63,0h-.15c-1.08,0-2.17.06-3.26,0s-2.16,0-3.24,0c-.6,0-1.21,0-1.82,0h-.19a.08.08,0,0,0-.08.08.45.45,0,0,0,0,.11,7.34,7.34,0,0,1-.17,1.4,5.79,5.79,0,0,1-1.53,2.86A10.24,10.24,0,0,1,7,34.5a9.34,9.34,0,0,1-1.37.31,1.73,1.73,0,0,1-.6,0,1.36,1.36,0,0,1-.88-.57,1.76,1.76,0,0,1-.33-1.42,1.33,1.33,0,0,1,1.07-1.1c.24-.06.49-.12.72-.2a7.7,7.7,0,0,0,1.74-.82,11.6,11.6,0,0,0,1.07-.77,2.7,2.7,0,0,0,1-1.66c0-.2.06-.41.08-.61s0-.12-.1-.13H8.18c-.72,0-1.43,0-2.15-.05a10.94,10.94,0,0,1-2.41-.34,4.83,4.83,0,0,1-1.51-.65A3.87,3.87,0,0,1,.87,25.11a6.07,6.07,0,0,1-.58-1.66,12.16,12.16,0,0,1-.22-1.7A1.79,1.79,0,0,0,0,21.24Zm19,1.46h0v.9a2.73,2.73,0,0,0,.07.64,2.67,2.67,0,0,0,1.34,1.87,4,4,0,0,0,2,.53,5.63,5.63,0,0,0,.58,0,3.88,3.88,0,0,0,1.4-.44,2.61,2.61,0,0,0,1.32-1.62,2.86,2.86,0,0,0,.12-.82c0-.75,0-1.5,0-2.25a3.26,3.26,0,0,0-.26-1.15,2.71,2.71,0,0,0-.42-.69A3.1,3.1,0,0,0,23,16.59a3.55,3.55,0,0,0-1.85.23,3.24,3.24,0,0,0-1.72,1.54A3.71,3.71,0,0,0,19,19.89C19,20.18,19,20.48,19,20.77ZM3,20.81H3v.73a3.86,3.86,0,0,0,0,.58A2.66,2.66,0,0,0,4.15,24a3.88,3.88,0,0,0,2.09.68,4.23,4.23,0,0,0,.71,0,3.69,3.69,0,0,0,1.44-.46,2.58,2.58,0,0,0,1.2-1.4,3,3,0,0,0,.18-1.07c0-.66,0-1.32,0-2a4.72,4.72,0,0,0-.05-.64,3.06,3.06,0,0,0-2.81-2.54,3.82,3.82,0,0,0-1.77.22,3.21,3.21,0,0,0-1.76,1.58A3.59,3.59,0,0,0,3,19.89C3,20.19,3,20.5,3,20.81Z"/><path class="cls-3" d="M71.52,34.89a1,1,0,0,0-.24-.09,2.06,2.06,0,0,1-1.2-1,1.72,1.72,0,0,1,0-1.59A1.91,1.91,0,0,1,71.52,31a1.85,1.85,0,0,1,2,1l.12.25h0l.12-.24a1.78,1.78,0,0,1,1.14-1,1.93,1.93,0,0,1,1.89.44,1.91,1.91,0,0,1,.6,1,1.82,1.82,0,0,1-.21,1.33,2,2,0,0,1-1.22.95l-.18.06h-.64a1.43,1.43,0,0,0-.22-.08,1.79,1.79,0,0,1-.79-.45,2.27,2.27,0,0,1-.43-.63s0-.12-.08-.14l0,0,0,.06a1.83,1.83,0,0,1-1.3,1.16l-.18.06Z"/><path class="cls-4" d="M57.91,34.89l-.2-.07a1.94,1.94,0,1,1,2.45-2.12,2,2,0,0,1-1.39,2.11,2,2,0,0,0-.22.08Z"/><path class="cls-5" d="M91.44,34.89a.94.94,0,0,0-.22-.07,1.94,1.94,0,1,1,2.44-2.23,1.92,1.92,0,0,1-1.28,2.19,1.54,1.54,0,0,0-.3.11Z"/><path class="cls-6" d="M122.9,0A.23.23,0,0,0,123,0a10.16,10.16,0,0,1,1.64.25,11.27,11.27,0,0,1,3.56,1.49,11.93,11.93,0,0,1,1.5,1.15A11.33,11.33,0,0,1,133.2,9.1a10.94,10.94,0,0,1,.18,1.4c0,.25,0,.49,0,.74a1.8,1.8,0,0,1-3.52.52,2.83,2.83,0,0,1-.09-.65,6.59,6.59,0,0,0-.27-1.94,6.77,6.77,0,0,0-.5-1.32,7.54,7.54,0,0,0-1-1.47,8,8,0,0,0-1.33-1.27,7.59,7.59,0,0,0-3.21-1.4,7.89,7.89,0,0,0-1.09-.11c-.3,0-.6,0-.9,0a6.4,6.4,0,0,0-1.15.18,7.54,7.54,0,0,0-4.54,3.14,7.37,7.37,0,0,0-1.21,3,6,6,0,0,0-.1,1.12,2.28,2.28,0,0,1,0,.45,1.61,1.61,0,0,1-.36.81A1.76,1.76,0,0,1,113,13a1.8,1.8,0,0,1-2.11-1.77,9.94,9.94,0,0,1,0-1.09,11.22,11.22,0,0,1,.6-2.67,11,11,0,0,1,1.1-2.26,10.36,10.36,0,0,1,1-1.37,11.25,11.25,0,0,1,1.15-1.14,10.64,10.64,0,0,1,1.66-1.18A11,11,0,0,1,120,.21,10.5,10.5,0,0,1,121.33,0l.11,0Z"/><path class="cls-7" d="M122.16,24.77c0-.09,0-.15.06-.22a1.68,1.68,0,0,1,.57-.86l1.63-1.3,2.09-1.66L128.66,19l2.42-1.93,2.07-1.66.43-.35a1.24,1.24,0,0,1,.68-.28,1.12,1.12,0,0,1,.48.06,1.48,1.48,0,0,1,.66.44,2.29,2.29,0,0,1,.59,1.31,3.53,3.53,0,0,1,0,.65l-.12.92c0,.37-.09.75-.14,1.12s-.07.55-.1.82l-.15,1.14c0,.37-.09.74-.14,1.11s-.07.57-.1.86-.07.52-.1.78-.07.58-.11.87-.07.59-.12.89a7.53,7.53,0,0,1-.6,2,9.17,9.17,0,0,1-1.26,2,11.81,11.81,0,0,1-1.2,1.25A13.91,13.91,0,0,1,130,32.41a16.9,16.9,0,0,1-3,1.52,15.57,15.57,0,0,1-2.69.76c-.37.07-.74.12-1.12.16s-.49,0-.74,0h-.67a10.69,10.69,0,0,1-1.26-.1,14.47,14.47,0,0,1-1.59-.33,15.76,15.76,0,0,1-6.28-3.26c-.21-.19-.42-.38-.61-.57a9.88,9.88,0,0,1-1.69-2.18,8,8,0,0,1-.84-2.08,9.38,9.38,0,0,1-.17-1c0-.29-.07-.58-.11-.87s-.07-.59-.11-.89-.07-.57-.11-.86-.07-.57-.11-.86-.07-.59-.11-.88-.07-.56-.1-.85-.08-.56-.11-.84-.08-.6-.11-.9-.08-.57-.11-.86-.05-.37-.07-.55a2.22,2.22,0,0,1,.07-.68,2,2,0,0,1,.55-1,1.41,1.41,0,0,1,1-.49,1.13,1.13,0,0,1,.62.16,2.27,2.27,0,0,1,.32.22l2.75,2.21,2.51,2,2.67,2.13,2.64,2.09a1.94,1.94,0,0,1,.4.41A1.67,1.67,0,0,1,122.16,24.77Zm0,.34v.08l0,.07a.77.77,0,0,1-.43.5,1.3,1.3,0,0,1-.58.11,4.46,4.46,0,0,1-.51-.07,7.92,7.92,0,0,1-.78-.26,20.38,20.38,0,0,1-1.95-.92,13.12,13.12,0,0,1-1.25-.73L115.33,23c-.28-.19-.57-.37-.86-.53a3.9,3.9,0,0,0-.72-.33,1.13,1.13,0,0,0-.41-.06.51.51,0,0,0-.49.44.71.71,0,0,0,0,.14,1.75,1.75,0,0,0,.09.6,4.84,4.84,0,0,0,.36,1,10.68,10.68,0,0,0,1,1.75,10.43,10.43,0,0,0,1.49,1.69,6.73,6.73,0,0,0,.65.52,13,13,0,0,0,1.28.8,10.36,10.36,0,0,0,2.35,1,7.77,7.77,0,0,0,2.19.3l.36,0a5.71,5.71,0,0,0,.71-.08,9.46,9.46,0,0,0,2.54-.83,15.34,15.34,0,0,0,1.58-.9,8.68,8.68,0,0,0,1.34-1.08,13.39,13.39,0,0,0,1.24-1.47,10.31,10.31,0,0,0,1.1-1.94,4.29,4.29,0,0,0,.31-1,1.14,1.14,0,0,0,0-.45.49.49,0,0,0-.34-.34.82.82,0,0,0-.35,0,2.24,2.24,0,0,0-.37.1,5.69,5.69,0,0,0-1,.54l-1.39.91a18.18,18.18,0,0,1-1.92,1.12c-.57.28-1.15.56-1.75.79a3.84,3.84,0,0,1-.82.23,1.55,1.55,0,0,1-.71,0,.81.81,0,0,1-.62-.6Z"/><path class="cls-8" d="M120.81,14.08a.24.24,0,0,1,.09.22v2.17a1.2,1.2,0,0,0,1.21,1.2h0a1.2,1.2,0,0,0,1.2-1.2V14.29a.22.22,0,0,1,.11-.23l.14-.11a2.28,2.28,0,0,0,.73-1.8,2.06,2.06,0,0,0-.67-1.43,2.19,2.19,0,0,0-3.39.44,2.19,2.19,0,0,0-.32,1,2.23,2.23,0,0,0,.39,1.46A2.42,2.42,0,0,0,120.81,14.08Z"/></svg>